<svg xmlns="http://www.w3.org/2000/svg" viewBox="0 0 64 64">
  <rect width="64" height="64" rx="14" fill="#24292F"/>
  <path fill="#fff" d="M32 14a18 18 0 0 0-5.7 35.1c.9.2 1.2-.4 1.2-.9v-3.1c-5 .9-6-2.1-6-2.1-.8-1.9-1.9-2.4-1.9-2.4-1.5-1 .1-1 .1-1 1.7.1 2.6 1.8 2.6 1.8 1.5 2.6 4 1.9 5 .1.2-1.1.6-1.9 1.1-2.3-4-.5-8.2-2-8.2-8.9 0-2 .7-3.6 1.8-4.9-.2-.4-.8-2.3.2-4.8 0 0 1.5-.5 5 1.9a17.2 17.2 0 0 1 9.1 0c3.5-2.4 5-1.9 5-1.9 1 2.5.4 4.4.2 4.8 1.1 1.3 1.8 2.9 1.8 4.9 0 6.9-4.2 8.4-8.2 8.9.6.6 1.2 1.7 1.2 3.4v5.1c0 .5.3 1.1 1.2.9A18 18 0 0 0 32 14z"/>
</svg>
